<?xml version="1.0" encoding="UTF-8" standalone="no"?>
<!-- Created with Inkscape (http://www.inkscape.org/) -->

<svg
   xmlns:dc="http://purl.org/dc/elements/1.1/"
   xmlns:cc="http://creativecommons.org/ns#"
   xmlns:rdf="http://www.w3.org/1999/02/22-rdf-syntax-ns#"
   xmlns:svg="http://www.w3.org/2000/svg"
   xmlns="http://www.w3.org/2000/svg"
   xmlns:xlink="http://www.w3.org/1999/xlink"
   xmlns:sodipodi="http://sodipodi.sourceforge.net/DTD/sodipodi-0.dtd"
   xmlns:inkscape="http://www.inkscape.org/namespaces/inkscape"
   width="210mm"
   height="297mm"
   viewBox="0 0 210 297"
   version="1.1"
   id="svg8"
   inkscape:version="0.92.3 (2405546, 2018-03-11)"
   sodipodi:docname="dessin.svg">
  <defs
     id="defs2">
    <linearGradient
       inkscape:collect="always"
       id="linearGradient908">
      <stop
         style="stop-color:#000000;stop-opacity:0.04313726"
         offset="0"
         id="stop904" />
      <stop
         id="stop912"
         offset="0.69999999"
         style="stop-color:#000000;stop-opacity:0" />
      <stop
         style="stop-color:#000000;stop-opacity:1"
         offset="1"
         id="stop906" />
    </linearGradient>
    <linearGradient
       id="linearGradient1075"
       inkscape:collect="always">
      <stop
         id="stop1069"
         offset="0"
         style="stop-color:#ffffff;stop-opacity:1" />
      <stop
         style="stop-color:#ffffff;stop-opacity:1"
         offset="0.5"
         id="stop1071" />
      <stop
         id="stop1073"
         offset="1"
         style="stop-color:#ffffff;stop-opacity:0.09803922" />
    </linearGradient>
    <linearGradient
       inkscape:collect="always"
       id="linearGradient932">
      <stop
         style="stop-color:#ffffff;stop-opacity:1"
         offset="0"
         id="stop926" />
      <stop
         id="stop928"
         offset="0.59999996"
         style="stop-color:#ffffff;stop-opacity:1" />
      <stop
         style="stop-color:#ffffff;stop-opacity:0.09803922"
         offset="1"
         id="stop930" />
    </linearGradient>
    <linearGradient
       id="linearGradient839"
       inkscape:collect="always">
      <stop
         id="stop833"
         offset="0"
         style="stop-color:#ff2700;stop-opacity:1" />
      <stop
         style="stop-color:#ff2700;stop-opacity:1"
         offset="0.59999996"
         id="stop835" />
      <stop
         id="stop837"
         offset="1"
         style="stop-color:#ff2700;stop-opacity:0.09950249" />
    </linearGradient>
    <linearGradient
       inkscape:collect="always"
       id="linearGradient821">
      <stop
         style="stop-color:#ff2700;stop-opacity:0"
         offset="0"
         id="stop817" />
      <stop
         id="stop827"
         offset="0.80000001"
         style="stop-color:#ff2700;stop-opacity:0.03137255;" />
      <stop
         style="stop-color:#ff2700;stop-opacity:0.9800995"
         offset="1"
         id="stop819" />
    </linearGradient>
    <radialGradient
       inkscape:collect="always"
       xlink:href="#linearGradient821"
       id="radialGradient823"
       cx="-109.99107"
       cy="95.538689"
       fx="-109.99107"
       fy="95.538689"
       r="69.925591"
       gradientUnits="userSpaceOnUse" />
    <radialGradient
       inkscape:collect="always"
       xlink:href="#linearGradient839"
       id="radialGradient831"
       gradientUnits="userSpaceOnUse"
       cx="-40.82143"
       cy="97.617561"
       fx="-40.82143"
       fy="97.617561"
       r="69.925591"
       gradientTransform="matrix(0,-0.61081078,0.89189195,0,-127.88575,72.683391)" />
    <filter
       inkscape:collect="always"
       style="color-interpolation-filters:sRGB"
       id="filter1717"
       x="-0.1704"
       width="1.3408"
       y="-0.1704"
       height="1.3408">
      <feGaussianBlur
         inkscape:collect="always"
         stdDeviation="2.7344758"
         id="feGaussianBlur1719" />
    </filter>
    <clipPath
       clipPathUnits="userSpaceOnUse"
       id="clipPath860">
      <rect
         style="opacity:1;fill:#cc1414;fill-opacity:1;stroke:none;stroke-width:9.3686285;stroke-linecap:butt;stroke-linejoin:round;stroke-miterlimit:4;stroke-dasharray:none;stroke-dashoffset:0;stroke-opacity:0.98039216"
         id="rect862"
         width="59.467468"
         height="101.82967"
         x="-348.65311"
         y="90.267021" />
    </clipPath>
    <filter
       inkscape:collect="always"
       style="color-interpolation-filters:sRGB"
       id="filter1104-3"
       x="-0.18839981"
       width="1.3767996"
       y="-0.18840019"
       height="1.3768004">
      <feGaussianBlur
         inkscape:collect="always"
         stdDeviation="0.39948689"
         id="feGaussianBlur1106-6" />
    </filter>
    <filter
       inkscape:collect="always"
       style="color-interpolation-filters:sRGB"
       id="filter1194-7"
       x="-0.090000033"
       width="1.1800001"
       y="-0.089999966"
       height="1.1799999">
      <feGaussianBlur
         inkscape:collect="always"
         stdDeviation="0.45357131"
         id="feGaussianBlur1196-5" />
    </filter>
    <filter
       inkscape:collect="always"
       style="color-interpolation-filters:sRGB"
       id="filter950-3"
       x="-0.11760005"
       width="1.2352"
       y="-0.11759995"
       height="1.2351999">
      <feGaussianBlur
         inkscape:collect="always"
         stdDeviation="0.59266652"
         id="feGaussianBlur952-5" />
    </filter>
    <filter
       inkscape:collect="always"
       style="color-interpolation-filters:sRGB"
       id="filter1104"
       x="-0.18839981"
       width="1.3767996"
       y="-0.18840019"
       height="1.3768004">
      <feGaussianBlur
         inkscape:collect="always"
         stdDeviation="0.39948689"
         id="feGaussianBlur1106" />
    </filter>
    <filter
       inkscape:collect="always"
       style="color-interpolation-filters:sRGB"
       id="filter1194"
       x="-0.090000033"
       width="1.1800001"
       y="-0.089999966"
       height="1.1799999">
      <feGaussianBlur
         inkscape:collect="always"
         stdDeviation="0.45357131"
         id="feGaussianBlur1196" />
    </filter>
    <filter
       inkscape:collect="always"
       style="color-interpolation-filters:sRGB"
       id="filter950"
       x="-0.11760005"
       width="1.2352"
       y="-0.11759995"
       height="1.2351999">
      <feGaussianBlur
         inkscape:collect="always"
         stdDeviation="0.59266652"
         id="feGaussianBlur952" />
    </filter>
    <filter
       inkscape:collect="always"
       style="color-interpolation-filters:sRGB"
       id="filter1400"
       x="-0.010556677"
       width="1.0211134"
       y="-0.10593342"
       height="1.2118669">
      <feGaussianBlur
         inkscape:collect="always"
         stdDeviation="0.34807177"
         id="feGaussianBlur1402" />
    </filter>
    <radialGradient
       inkscape:collect="always"
       xlink:href="#linearGradient839"
       id="radialGradient831-3"
       gradientUnits="userSpaceOnUse"
       cx="-40.82143"
       cy="97.617561"
       fx="-40.82143"
       fy="97.617561"
       r="69.925591"
       gradientTransform="matrix(0,-0.61081078,0.89189194,0,-126.46635,220.33475)" />
    <radialGradient
       gradientTransform="translate(1.4193983,147.65135)"
       inkscape:collect="always"
       xlink:href="#linearGradient821"
       id="radialGradient823-3"
       cx="-109.99107"
       cy="95.538689"
       fx="-109.99107"
       fy="95.538689"
       r="69.925591"
       gradientUnits="userSpaceOnUse" />
    <radialGradient
       inkscape:collect="always"
       xlink:href="#linearGradient821"
       id="radialGradient922"
       gradientUnits="userSpaceOnUse"
       gradientTransform="translate(1.4193983,300.52952)"
       cx="-109.99107"
       cy="95.538689"
       fx="-109.99107"
       fy="95.538689"
       r="69.925591" />
    <radialGradient
       inkscape:collect="always"
       xlink:href="#linearGradient932"
       id="radialGradient924"
       gradientUnits="userSpaceOnUse"
       gradientTransform="matrix(0,-0.61081078,0.89189194,0,-126.46635,373.21292)"
       cx="-40.82143"
       cy="97.617561"
       fx="-40.82143"
       fy="97.617561"
       r="69.925591" />
    <radialGradient
       inkscape:collect="always"
       xlink:href="#linearGradient932-0"
       id="radialGradient924-7"
       gradientUnits="userSpaceOnUse"
       gradientTransform="matrix(0,-0.94594599,0.3972973,0,-69.462218,530.32756)"
       cx="-40.82143"
       cy="97.617561"
       fx="-40.82143"
       fy="97.617561"
       r="69.925591" />
    <linearGradient
       inkscape:collect="always"
       id="linearGradient932-0">
      <stop
         style="stop-color:#ffffff;stop-opacity:1"
         offset="0"
         id="stop926-9" />
      <stop
         id="stop928-3"
         offset="0.40000001"
         style="stop-color:#ffffff;stop-opacity:1" />
      <stop
         style="stop-color:#ffffff;stop-opacity:0.09803922"
         offset="1"
         id="stop930-6" />
    </linearGradient>
    <radialGradient
       inkscape:collect="always"
       xlink:href="#linearGradient821"
       id="radialGradient1063"
       gradientUnits="userSpaceOnUse"
       gradientTransform="translate(5.9551126,477.98345)"
       cx="-109.99107"
       cy="95.538689"
       fx="-109.99107"
       fy="95.538689"
       r="69.925591" />
    <radialGradient
       inkscape:collect="always"
       xlink:href="#linearGradient1075"
       id="radialGradient1065"
       gradientUnits="userSpaceOnUse"
       gradientTransform="matrix(0,-0.55135137,0.42297298,0,-76.155911,553.09407)"
       cx="-40.82143"
       cy="97.617561"
       fx="-40.82143"
       fy="97.617561"
       r="69.925591" />
    <radialGradient
       inkscape:collect="always"
       xlink:href="#linearGradient908"
       id="radialGradient910"
       cx="-1352.3987"
       cy="690.8512"
       fx="-1352.3987"
       fy="690.8512"
       r="169.07739"
       gradientUnits="userSpaceOnUse"
       gradientTransform="matrix(0.99271814,0,0,1,218.93473,-468.25621)" />
  </defs>
  <sodipodi:namedview
     id="base"
     pagecolor="#ffffff"
     bordercolor="#666666"
     borderopacity="1.0"
     inkscape:pageopacity="0.0"
     inkscape:pageshadow="2"
     inkscape:zoom="0.35000001"
     inkscape:cx="-1675.9419"
     inkscape:cy="-544.42498"
     inkscape:document-units="mm"
     inkscape:current-layer="layer1"
     showgrid="false"
     inkscape:window-width="1920"
     inkscape:window-height="1025"
     inkscape:window-x="0"
     inkscape:window-y="0"
     inkscape:window-maximized="1" />
  <metadata
     id="metadata5">
    <rdf:RDF>
      <cc:Work
         rdf:about="">
        <dc:format>image/svg+xml</dc:format>
        <dc:type
           rdf:resource="http://purl.org/dc/dcmitype/StillImage" />
        <dc:title />
      </cc:Work>
    </rdf:RDF>
  </metadata>
  <g
     inkscape:label="Calque 1"
     inkscape:groupmode="layer"
     id="layer1">
    <rect
       style="opacity:1;fill:#fefefe;fill-opacity:1;stroke:#801300;stroke-width:1;stroke-linecap:round;stroke-linejoin:bevel;stroke-miterlimit:4;stroke-dasharray:none;stroke-dashoffset:0;stroke-opacity:0.98039216"
       id="rect841"
       width="340.55655"
       height="193.52382"
       x="-460.42758"
       y="-223.54425" />
    <circle
       style="opacity:0.046;fill:url(#radialGradient823);fill-opacity:1;stroke:none;stroke-width:1;stroke-linecap:round;stroke-linejoin:bevel;stroke-miterlimit:4;stroke-dasharray:none;stroke-dashoffset:0;stroke-opacity:1"
       id="path815"
       cx="-109.99107"
       cy="95.538689"
       r="69.925591"
       inkscape:export-xdpi="200"
       inkscape:export-ydpi="200" />
    <circle
       r="69.925591"
       cy="95.538689"
       cx="-109.99107"
       id="circle829"
       style="opacity:0.197;fill:url(#radialGradient831);fill-opacity:1;stroke:none;stroke-width:1;stroke-linecap:round;stroke-linejoin:bevel;stroke-miterlimit:4;stroke-dasharray:none;stroke-dashoffset:0;stroke-opacity:1"
       inkscape:export-xdpi="200"
       inkscape:export-ydpi="200" />
    <path
       sodipodi:type="star"
       style="opacity:1;fill:#ff2700;fill-opacity:0.98009949;stroke:#801300;stroke-width:10.2363049;stroke-linecap:round;stroke-linejoin:bevel;stroke-miterlimit:4;stroke-dasharray:none;stroke-dashoffset:0;stroke-opacity:0.98039216"
       id="path825"
       sodipodi:sides="3"
       sodipodi:cx="-53.773548"
       sodipodi:cy="69.290642"
       sodipodi:r1="101.33049"
       sodipodi:r2="84.926041"
       sodipodi:arg1="2.4848254"
       sodipodi:arg2="1.8872217"
       inkscape:flatsided="true"
       inkscape:rounded="1"
       inkscape:randomized="0"
       d="M -134.02427,131.15897 C -241.18335,-7.8393642 -241.18335,-7.8393642 -67.227727,-31.142686 106.7279,-54.446007 106.7279,-54.446007 39.931354,107.85564 -26.86519,270.1573 -26.86519,270.1573 -134.02427,131.15897 Z"
       inkscape:transform-center-x="-2.7706825"
       inkscape:transform-center-y="-0.91412282"
       transform="matrix(0.01295494,-0.09682871,0.09682871,0.01295494,-64.077095,89.433062)"
       inkscape:export-xdpi="200"
       inkscape:export-ydpi="200" />
    <circle
       style="opacity:1;fill:none;fill-opacity:1;stroke:#000000;stroke-width:3;stroke-linecap:round;stroke-linejoin:bevel;stroke-miterlimit:4;stroke-dasharray:none;stroke-dashoffset:0;stroke-opacity:0.98039216"
       id="path883"
       cx="-445.80557"
       cy="59.664658"
       r="16.570711"
       inkscape:export-xdpi="15"
       inkscape:export-ydpi="15" />
    <circle
       inkscape:export-ydpi="15"
       inkscape:export-xdpi="15"
       r="19.256872"
       cy="59.664658"
       cx="-445.80557"
       id="circle1055"
       style="opacity:0.81600001;fill:none;fill-opacity:1;stroke:#000000;stroke-width:3.48630881;stroke-linecap:round;stroke-linejoin:bevel;stroke-miterlimit:4;stroke-dasharray:none;stroke-dashoffset:0;stroke-opacity:0.98039216;filter:url(#filter1717)"
       transform="matrix(0.93210175,0,0,0.93210175,-30.269418,4.0511257)" />
    <circle
       inkscape:export-ydpi="15"
       inkscape:export-xdpi="15"
       r="15.1533"
       cy="59.664658"
       cx="-445.80557"
       id="circle1497"
       style="opacity:1;fill:none;fill-opacity:1;stroke:#ffffff;stroke-width:2.74338865;stroke-linecap:round;stroke-linejoin:bevel;stroke-miterlimit:4;stroke-dasharray:none;stroke-dashoffset:0;stroke-opacity:0.98039216" />
    <circle
       style="opacity:1;fill:#000000;fill-opacity:1;stroke:#ffffff;stroke-width:0.7939185;stroke-linecap:butt;stroke-linejoin:round;stroke-miterlimit:4;stroke-dasharray:none;stroke-dashoffset:0;stroke-opacity:0.98039216"
       id="path815-3"
       cx="-289.52975"
       cy="142.78572"
       r="8.7879467"
       inkscape:export-xdpi="87.820297"
       inkscape:export-ydpi="87.820297"
       transform="matrix(6.2978757,0,0,6.2978757,1533.8926,-756.461)" />
    <ellipse
       inkscape:export-ydpi="87.820297"
       inkscape:export-xdpi="87.820297"
       ry="36.740005"
       rx="35.785587"
       style="opacity:1;fill:#000000;fill-opacity:1;stroke:#fffefe;stroke-width:2;stroke-linecap:butt;stroke-linejoin:round;stroke-miterlimit:4;stroke-dasharray:none;stroke-dashoffset:0;stroke-opacity:0.98039216"
       id="ellipse856"
       cx="-289.52975"
       cy="142.78572"
       clip-path="url(#clipPath860)" />
    <ellipse
       cy="142.78572"
       cx="-289.52975"
       id="circle817"
       style="opacity:1;fill:#000000;fill-opacity:1;stroke:#fff2f2;stroke-width:3.56515145;stroke-linecap:butt;stroke-linejoin:round;stroke-miterlimit:4;stroke-dasharray:none;stroke-dashoffset:0;stroke-opacity:0.98039216"
       rx="19.865335"
       ry="20.395155"
       inkscape:export-xdpi="87.820297"
       inkscape:export-ydpi="87.820297" />
    <path
       style="fill:none;stroke:#000000;stroke-width:10;stroke-linecap:butt;stroke-linejoin:miter;stroke-miterlimit:4;stroke-dasharray:none;stroke-opacity:1"
       d="m -311.51832,142.78565 h 21.04038"
       id="path1055"
       inkscape:connector-curvature="0"
       inkscape:export-xdpi="87.820297"
       inkscape:export-ydpi="87.820297" />
    <rect
       style="opacity:1;fill:#ffffff;fill-opacity:1;stroke:none;stroke-width:6.87328911;stroke-linecap:butt;stroke-linejoin:round;stroke-miterlimit:4;stroke-dasharray:none;stroke-dashoffset:0;stroke-opacity:0.98039216"
       id="rect1057"
       width="53.062035"
       height="3.1560566"
       x="-342.52081"
       y="141.1925"
       inkscape:export-xdpi="87.820297"
       inkscape:export-ydpi="87.820297" />
    <ellipse
       ry="2.7400713"
       rx="2.6688902"
       style="opacity:1;fill:#000000;fill-opacity:1;stroke:#fffcfc;stroke-width:3.1489377;stroke-linecap:butt;stroke-linejoin:round;stroke-miterlimit:4;stroke-dasharray:none;stroke-dashoffset:0;stroke-opacity:0.98039216"
       id="ellipse1059"
       cx="-289.52975"
       cy="142.78572"
       inkscape:export-xdpi="87.820297"
       inkscape:export-ydpi="87.820297" />
    <circle
       style="opacity:1;fill:#1453cc;fill-opacity:1;stroke:#fffefe;stroke-width:2;stroke-linecap:butt;stroke-linejoin:round;stroke-miterlimit:4;stroke-dasharray:none;stroke-dashoffset:0;stroke-opacity:0.98039216"
       id="path864"
       cx="-289.577"
       cy="106.35825"
       r="3.7797618"
       inkscape:export-xdpi="87.820297"
       inkscape:export-ydpi="87.820297" />
    <circle
       r="3.7797618"
       cy="142.70691"
       cx="-342.54077"
       id="circle866"
       style="opacity:1;fill:#1453cc;fill-opacity:1;stroke:#fffefe;stroke-width:2;stroke-linecap:butt;stroke-linejoin:round;stroke-miterlimit:4;stroke-dasharray:none;stroke-dashoffset:0;stroke-opacity:0.98039216"
       inkscape:export-xdpi="87.820297"
       inkscape:export-ydpi="87.820297" />
    <text
       id="text1266"
       y="-23.211103"
       x="-30.585131"
       style="font-style:normal;font-weight:normal;font-size:10.58333302px;line-height:1.25;font-family:sans-serif;letter-spacing:0px;word-spacing:0px;opacity:1;fill:#111111;fill-opacity:1;stroke:none;stroke-width:0.26458332;filter:url(#filter1400)"
       xml:space="preserve"
       inkscape:export-xdpi="200"
       inkscape:export-ydpi="200"
       transform="matrix(4.8633631,0,0,4.8633631,-645.47763,292.3532)"><tspan
         style="font-style:normal;font-variant:normal;font-weight:normal;font-stretch:normal;font-family:Sawasdee;-inkscape-font-specification:Sawasdee;fill:#111111;fill-opacity:1;stroke-width:0.26458332"
         y="-23.211103"
         x="-30.585131"
         id="tspan1264"
         sodipodi:role="line">Click to continue</tspan></text>
    <path
       inkscape:connector-curvature="0"
       id="path852"
       d="m 23.314127,19.701021 a 6.0476194,6.0476194 0 0 1 -6.04761,6.04762 6.0476194,6.0476194 0 0 1 -6.04762,-6.04762 6.0476194,6.0476194 0 0 1 6.04762,-6.04762 6.0476194,6.0476194 0 0 1 6.04761,6.04762 z"
       style="opacity:1;fill:#d7330f;fill-opacity:1;stroke:none;stroke-width:2;stroke-linecap:butt;stroke-linejoin:round;stroke-miterlimit:4;stroke-dasharray:none;stroke-dashoffset:0;stroke-opacity:0.98039216;filter:url(#filter950)"
       inkscape:export-xdpi="200"
       inkscape:export-ydpi="200"
       transform="matrix(4.8633631,0,0,4.8633631,-645.47763,292.3532)" />
    <path
       inkscape:connector-curvature="0"
       style="opacity:1;fill:#d7330f;fill-opacity:1;stroke:none;stroke-width:2;stroke-linecap:butt;stroke-linejoin:round;stroke-miterlimit:4;stroke-dasharray:none;stroke-dashoffset:0;stroke-opacity:0.98039216;filter:url(#filter1194)"
       d="m 23.314127,19.701021 a 6.0476194,6.0476194 0 0 1 -6.04761,6.04762 6.0476194,6.0476194 0 0 1 -6.04762,-6.04762 6.0476194,6.0476194 0 0 1 6.04762,-6.04762 6.0476194,6.0476194 0 0 1 6.04761,6.04762 z"
       id="path815-36"
       inkscape:export-xdpi="200"
       inkscape:export-ydpi="200"
       transform="matrix(4.8633631,0,0,4.8633631,-645.47763,292.3532)" />
    <path
       inkscape:connector-curvature="0"
       id="path954"
       d="m -169.03671,-118.96035 5.08901,5.089"
       style="fill:none;stroke:#000000;stroke-width:1.22398663;stroke-linecap:butt;stroke-linejoin:miter;stroke-miterlimit:4;stroke-dasharray:none;stroke-opacity:1;filter:url(#filter1104)"
       transform="matrix(6.5227017,0,0,6.5227017,524.47466,1147.5123)"
       inkscape:export-xdpi="200"
       inkscape:export-ydpi="200" />
    <path
       style="fill:none;stroke:#000000;stroke-width:1.22398663;stroke-linecap:butt;stroke-linejoin:miter;stroke-miterlimit:4;stroke-dasharray:none;stroke-opacity:1;filter:url(#filter1104)"
       d="m -163.9477,-118.96035 -5.08901,5.089"
       id="path956"
       inkscape:connector-curvature="0"
       transform="matrix(6.5227017,0,0,6.5227017,524.47466,1147.5123)"
       inkscape:export-xdpi="200"
       inkscape:export-ydpi="200" />
    <path
       style="fill:none;stroke:#000000;stroke-width:6.64979649;stroke-linecap:round;stroke-linejoin:miter;stroke-miterlimit:4;stroke-dasharray:none;stroke-opacity:1"
       d="m -575.32835,374.34236 27.64807,27.64807"
       id="path817"
       inkscape:connector-curvature="0"
       inkscape:export-xdpi="200"
       inkscape:export-ydpi="200" />
    <path
       inkscape:connector-curvature="0"
       id="path821"
       d="m -547.68028,374.34236 -27.64807,27.64807"
       style="fill:none;stroke:#000000;stroke-width:6.64979649;stroke-linecap:round;stroke-linejoin:miter;stroke-miterlimit:4;stroke-dasharray:none;stroke-opacity:1"
       inkscape:export-xdpi="200"
       inkscape:export-ydpi="200" />
    <circle
       style="opacity:1;fill:#ff0b03;fill-opacity:0.28627451;stroke:#e51616;stroke-width:8.26698017;stroke-linecap:round;stroke-linejoin:miter;stroke-miterlimit:4;stroke-dasharray:none;stroke-dashoffset:0;stroke-opacity:0.99607843"
       id="path1202"
       cx="-713.90588"
       cy="336.39203"
       r="75.675781"
       inkscape:export-xdpi="500"
       inkscape:export-ydpi="500" />
    <path
       inkscape:connector-curvature="0"
       id="path852-6"
       d="m 23.314137,-2.99932 a 6.0476195,6.0476195 0 0 1 -6.04761,6.04762 6.0476195,6.0476195 0 0 1 -6.04762,-6.04762 6.0476195,6.0476195 0 0 1 6.04762,-6.04762 6.0476195,6.0476195 0 0 1 6.04761,6.04762 z"
       style="opacity:1;fill:#0f9fd7;fill-opacity:1;stroke:none;stroke-width:2;stroke-linecap:butt;stroke-linejoin:round;stroke-miterlimit:4;stroke-dasharray:none;stroke-dashoffset:0;stroke-opacity:0.98039216;filter:url(#filter950-3)"
       inkscape:export-xdpi="200"
       inkscape:export-ydpi="200"
       transform="matrix(4.8633631,0,0,4.8633631,-645.47763,292.3532)" />
    <path
       inkscape:connector-curvature="0"
       style="opacity:1;fill:#38d70f;fill-opacity:1;stroke:none;stroke-width:2;stroke-linecap:butt;stroke-linejoin:round;stroke-miterlimit:4;stroke-dasharray:none;stroke-dashoffset:0;stroke-opacity:0.98039216;filter:url(#filter1194-7)"
       d="m 23.314137,-2.99932 a 6.0476195,6.0476195 0 0 1 -6.04761,6.04762 6.0476195,6.0476195 0 0 1 -6.04762,-6.04762 6.0476195,6.0476195 0 0 1 6.04762,-6.04762 6.0476195,6.0476195 0 0 1 6.04761,6.04762 z"
       id="path815-2"
       inkscape:export-xdpi="200"
       inkscape:export-ydpi="200"
       transform="matrix(4.8633631,0,0,4.8633631,-645.47763,292.3532)" />
    <path
       inkscape:connector-curvature="0"
       id="path954-9"
       d="m -169.03671,-118.96035 5.08901,5.089"
       style="fill:none;stroke:#000000;stroke-width:1.22398663;stroke-linecap:butt;stroke-linejoin:miter;stroke-miterlimit:4;stroke-dasharray:none;stroke-opacity:1;filter:url(#filter1104-3)"
       transform="matrix(6.5227017,0,0,6.5227017,524.47466,1037.1124)"
       inkscape:export-xdpi="200"
       inkscape:export-ydpi="200" />
    <path
       style="fill:none;stroke:#000000;stroke-width:1.22398663;stroke-linecap:butt;stroke-linejoin:miter;stroke-miterlimit:4;stroke-dasharray:none;stroke-opacity:1;filter:url(#filter1104-3)"
       d="m -163.9477,-118.96035 -5.08901,5.089"
       id="path956-1"
       inkscape:connector-curvature="0"
       transform="matrix(6.5227017,0,0,6.5227017,524.47466,1037.1124)"
       inkscape:export-xdpi="200"
       inkscape:export-ydpi="200" />
    <path
       style="fill:none;stroke:#000000;stroke-width:6.64979649;stroke-linecap:round;stroke-linejoin:miter;stroke-miterlimit:4;stroke-dasharray:none;stroke-opacity:1"
       d="m -575.3283,263.94236 27.64807,27.64807"
       id="path817-2"
       inkscape:connector-curvature="0"
       inkscape:export-xdpi="200"
       inkscape:export-ydpi="200" />
    <path
       inkscape:connector-curvature="0"
       id="path821-7"
       d="m -547.68023,263.94236 -27.64807,27.64807"
       style="fill:none;stroke:#000000;stroke-width:6.64979649;stroke-linecap:round;stroke-linejoin:miter;stroke-miterlimit:4;stroke-dasharray:none;stroke-opacity:1"
       inkscape:export-xdpi="200"
       inkscape:export-ydpi="200" />
    <text
       xml:space="preserve"
       style="font-style:normal;font-weight:normal;font-size:51.4705925px;line-height:1.25;font-family:Sawasdee;letter-spacing:0px;word-spacing:0px;fill:#000000;fill-opacity:1;stroke:none;stroke-width:1.28676474;-inkscape-font-specification:Sawasdee;font-stretch:normal;font-variant:normal;"
       x="-794.22437"
       y="179.46921"
       id="text1262"
       inkscape:export-xdpi="200"
       inkscape:export-ydpi="200"><tspan
         sodipodi:role="line"
         id="tspan1260"
         x="-794.22437"
         y="179.46921"
         style="font-style:normal;font-variant:normal;font-weight:normal;font-stretch:normal;font-family:Sawasdee;-inkscape-font-specification:Sawasdee;stroke-width:1.28676474;">Click to continue</tspan></text>
    <circle
       inkscape:export-ydpi="150"
       inkscape:export-xdpi="150"
       r="75.675781"
       cy="515.99713"
       cx="-713.90588"
       id="circle872"
       style="opacity:1;fill:#03fff2;fill-opacity:0.28627452;stroke:#5bb889;stroke-width:8.26698017;stroke-linecap:round;stroke-linejoin:miter;stroke-miterlimit:4;stroke-dasharray:none;stroke-dashoffset:0;stroke-opacity:0.99607843" />
    <circle
       style="opacity:0.04599998;fill:url(#radialGradient823-3);fill-opacity:1;stroke:none;stroke-width:1;stroke-linecap:round;stroke-linejoin:bevel;stroke-miterlimit:4;stroke-dasharray:none;stroke-dashoffset:0;stroke-opacity:1"
       id="path815-9"
       cx="-108.57167"
       cy="243.19005"
       r="69.925591"
       inkscape:export-xdpi="200"
       inkscape:export-ydpi="200" />
    <circle
       r="69.925591"
       cy="243.19005"
       cx="-108.57167"
       id="circle829-1"
       style="opacity:0.197;fill:url(#radialGradient831-3);fill-opacity:1;stroke:none;stroke-width:1;stroke-linecap:round;stroke-linejoin:bevel;stroke-miterlimit:4;stroke-dasharray:none;stroke-dashoffset:0;stroke-opacity:1"
       inkscape:export-xdpi="200"
       inkscape:export-ydpi="200" />
    <path
       sodipodi:type="star"
       style="opacity:1;fill:#ff2700;fill-opacity:0.98009949;stroke:#801300;stroke-width:10.23630524;stroke-linecap:round;stroke-linejoin:bevel;stroke-miterlimit:4;stroke-dasharray:none;stroke-dashoffset:0;stroke-opacity:0.98039216"
       id="path825-2"
       sodipodi:sides="3"
       sodipodi:cx="-53.773548"
       sodipodi:cy="69.290642"
       sodipodi:r1="101.33049"
       sodipodi:r2="84.926041"
       sodipodi:arg1="2.4848254"
       sodipodi:arg2="1.8872217"
       inkscape:flatsided="true"
       inkscape:rounded="1"
       inkscape:randomized="0"
       d="M -134.02427,131.15897 C -241.18335,-7.8393642 -241.18335,-7.8393642 -67.227727,-31.142686 106.7279,-54.446007 106.7279,-54.446007 39.931354,107.85564 -26.86519,270.1573 -26.86519,270.1573 -134.02427,131.15897 Z"
       inkscape:transform-center-x="-1.5150048"
       inkscape:transform-center-y="-0.49984074"
       transform="matrix(0.00708374,-0.0529458,0.0529458,0.00708374,-53.549852,240.26578)"
       inkscape:export-xdpi="200"
       inkscape:export-ydpi="200" />
    <circle
       inkscape:export-ydpi="200"
       inkscape:export-xdpi="200"
       r="69.925591"
       cy="396.06821"
       cx="-108.57167"
       id="circle916"
       style="opacity:0.04599998;fill:url(#radialGradient922);fill-opacity:1;stroke:none;stroke-width:1;stroke-linecap:round;stroke-linejoin:bevel;stroke-miterlimit:4;stroke-dasharray:none;stroke-dashoffset:0;stroke-opacity:1" />
    <circle
       inkscape:export-ydpi="200"
       inkscape:export-xdpi="200"
       style="opacity:0.197;fill:url(#radialGradient924);fill-opacity:1;stroke:none;stroke-width:1;stroke-linecap:round;stroke-linejoin:bevel;stroke-miterlimit:4;stroke-dasharray:none;stroke-dashoffset:0;stroke-opacity:1"
       id="circle918"
       cx="-108.57167"
       cy="396.06821"
       r="69.925591" />
    <path
       inkscape:export-ydpi="200"
       inkscape:export-xdpi="200"
       transform="matrix(0.00708374,-0.0529458,0.0529458,0.00708374,-53.549852,393.14395)"
       inkscape:transform-center-y="-0.49984074"
       inkscape:transform-center-x="-1.5150048"
       d="M -134.02427,131.15897 C -241.18335,-7.8393642 -241.18335,-7.8393642 -67.227727,-31.142686 106.7279,-54.446007 106.7279,-54.446007 39.931354,107.85564 -26.86519,270.1573 -26.86519,270.1573 -134.02427,131.15897 Z"
       inkscape:randomized="0"
       inkscape:rounded="1"
       inkscape:flatsided="true"
       sodipodi:arg2="1.8872217"
       sodipodi:arg1="2.4848254"
       sodipodi:r2="84.926041"
       sodipodi:r1="101.33049"
       sodipodi:cy="69.290642"
       sodipodi:cx="-53.773548"
       sodipodi:sides="3"
       id="path920"
       style="opacity:1;fill:#ff2700;fill-opacity:0.98009949;stroke:#801300;stroke-width:10.23630524;stroke-linecap:round;stroke-linejoin:bevel;stroke-miterlimit:4;stroke-dasharray:none;stroke-dashoffset:0;stroke-opacity:0.98039216"
       sodipodi:type="star" />
    <circle
       inkscape:export-ydpi="200"
       inkscape:export-xdpi="200"
       style="opacity:0.197;fill:url(#radialGradient924-7);fill-opacity:1;stroke:none;stroke-width:1;stroke-linecap:round;stroke-linejoin:bevel;stroke-miterlimit:4;stroke-dasharray:none;stroke-dashoffset:0;stroke-opacity:1"
       id="circle918-8"
       cx="-99.848656"
       cy="566.86353"
       r="0" />
    <circle
       style="opacity:0.04599998;fill:url(#radialGradient1063);fill-opacity:1;stroke:none;stroke-width:1;stroke-linecap:round;stroke-linejoin:bevel;stroke-miterlimit:4;stroke-dasharray:none;stroke-dashoffset:0;stroke-opacity:1"
       id="circle1057"
       cx="-104.03596"
       cy="573.52216"
       r="69.925591"
       inkscape:export-xdpi="160"
       inkscape:export-ydpi="160" />
    <circle
       r="69.925591"
       cy="573.52216"
       cx="-104.03596"
       id="circle1059"
       style="opacity:0.197;fill:url(#radialGradient1065);fill-opacity:1;stroke:none;stroke-width:1;stroke-linecap:round;stroke-linejoin:bevel;stroke-miterlimit:4;stroke-dasharray:none;stroke-dashoffset:0;stroke-opacity:1"
       inkscape:export-xdpi="160"
       inkscape:export-ydpi="160" />
    <path
       sodipodi:type="star"
       style="opacity:1;fill:#ff2700;fill-opacity:0.98009949;stroke:#801300;stroke-width:10.23630524;stroke-linecap:round;stroke-linejoin:bevel;stroke-miterlimit:4;stroke-dasharray:none;stroke-dashoffset:0;stroke-opacity:0.98039216"
       id="path1061"
       sodipodi:sides="3"
       sodipodi:cx="-53.773548"
       sodipodi:cy="69.290642"
       sodipodi:r1="101.33049"
       sodipodi:r2="84.926041"
       sodipodi:arg1="2.4848254"
       sodipodi:arg2="1.8872217"
       inkscape:flatsided="true"
       inkscape:rounded="1"
       inkscape:randomized="0"
       d="M -134.02427,131.15897 C -241.18335,-7.8393642 -241.18335,-7.8393642 -67.227727,-31.142686 106.7279,-54.446007 106.7279,-54.446007 39.931354,107.85564 -26.86519,270.1573 -26.86519,270.1573 -134.02427,131.15897 Z"
       inkscape:transform-center-x="-1.5150048"
       inkscape:transform-center-y="-0.49984074"
       transform="matrix(0.00708374,-0.0529458,0.0529458,0.00708374,-49.014138,570.59788)"
       inkscape:export-xdpi="160"
       inkscape:export-ydpi="160" />
    <rect
       style="opacity:1;fill:url(#radialGradient910);fill-opacity:1;stroke:none;stroke-width:1;stroke-linecap:round;stroke-linejoin:miter;stroke-miterlimit:4;stroke-dasharray:none;stroke-dashoffset:0;stroke-opacity:0.99607843"
       id="rect902"
       width="337.15479"
       height="337.15479"
       x="-1292.1934"
       y="54.017593"
       inkscape:export-xdpi="75"
       inkscape:export-ydpi="75" />
    <path
       sodipodi:nodetypes="ccccccccccccscscscccccccccccccccscccc"
       inkscape:connector-curvature="0"
       id="path875"
       d="m -403.09968,529.59001 c 1.05678,0.12802 2.01319,0.60609 2.75401,1.37661 0.61663,0.64136 0.98867,1.33788 1.18506,2.21862 l 0.0826,0.37042 v 5.23875 5.23875 l -0.77611,1.39347 -0.77611,1.39347 -0.0176,1.00542 -0.0176,1.00542 -0.84384,0.009 c -0.55018,0.006 -0.86017,0.023 -0.89076,0.0484 -0.034,0.0282 -0.0469,0.14888 -0.0469,0.43744 0,0.21917 0.01,0.4236 0.0214,0.45429 0.0191,0.0498 0.19794,0.0558 1.65517,0.0558 0.89856,0 1.65886,0.01 1.68955,0.0214 0.0501,0.0192 0.0558,0.25106 0.0558,2.2579 v 2.23649 l -4.64784,-0.009 -4.64785,-0.009 -0.009,-2.20091 c -0.007,-1.58708 0.002,-2.21423 0.0305,-2.24862 0.032,-0.0386 0.35683,-0.0494 1.70242,-0.0568 l 1.66284,-0.009 v -0.47625 -0.47625 l -0.87158,-0.009 -0.87158,-0.009 -0.0108,-0.99599 -0.0108,-0.99598 -0.79334,-1.42875 -0.79335,-1.42875 -0.0106,-4.86833 c -0.0114,-5.19836 -0.004,-5.48956 0.15726,-6.12949 0.42795,-1.69934 1.78444,-2.99204 3.50832,-3.34334 0.4162,-0.0848 1.12606,-0.11575 1.53091,-0.0667 z"
       style="fill:#e2322e;stroke-width:0.03527778"
       inkscape:export-xdpi="200"
       inkscape:export-ydpi="200" />
    <path
       sodipodi:nodetypes="ccccccccccccscscscccccccccccccccscccc"
       inkscape:connector-curvature="0"
       id="path873"
       d="m -403.09968,529.59001 c 1.05678,0.12802 2.01319,0.60609 2.75401,1.37661 0.61663,0.64136 0.98867,1.33788 1.18506,2.21862 l 0.0826,0.37042 v 5.23875 5.23875 l -0.77611,1.39347 -0.77611,1.39347 -0.0176,1.00542 -0.0176,1.00542 -0.84384,0.009 c -0.55018,0.006 -0.86017,0.023 -0.89076,0.0484 -0.034,0.0282 -0.0469,0.14888 -0.0469,0.43744 0,0.21917 0.01,0.4236 0.0214,0.45429 0.0191,0.0498 0.19794,0.0558 1.65517,0.0558 0.89856,0 1.65886,0.01 1.68955,0.0214 0.0501,0.0192 0.0558,0.25106 0.0558,2.2579 v 2.23649 l -4.64784,-0.009 -4.64785,-0.009 -0.009,-2.20091 c -0.007,-1.58708 0.002,-2.21423 0.0305,-2.24862 0.032,-0.0386 0.35683,-0.0494 1.70242,-0.0568 l 1.66284,-0.009 v -0.47625 -0.47625 l -0.87158,-0.009 -0.87158,-0.009 -0.0108,-0.99599 -0.0108,-0.99598 -0.79334,-1.42875 -0.79335,-1.42875 -0.0106,-4.86833 c -0.0114,-5.19836 -0.004,-5.48956 0.15726,-6.12949 0.42795,-1.69934 1.78444,-2.99204 3.50832,-3.34334 0.4162,-0.0848 1.12606,-0.11575 1.53091,-0.0667 z"
       style="fill:#5e8848;stroke-width:0.03527778"
       inkscape:export-xdpi="200"
       inkscape:export-ydpi="200" />
    <path
       sodipodi:nodetypes="cccscccccccccccccccccscscccccccccccccccccscccscscccccccsccccsccsccc"
       inkscape:connector-curvature="0"
       id="path871"
       d="m -403.23169,529.62441 c 1.05259,0.0863 2.02765,0.53705 2.78044,1.28538 0.65128,0.64742 1.03307,1.35231 1.27139,2.34736 0.059,0.2464 0.064,0.6115 0.0744,5.50266 l 0.0112,5.23875 -0.78565,1.42875 -0.78565,1.42875 -0.0176,0.97014 -0.0176,0.97014 -0.8643,0.0176 -0.86431,0.0176 -0.006,0.51152 c -0.005,0.447 0.002,0.51456 0.0529,0.53551 0.0322,0.0132 0.79283,0.0251 1.69021,0.0265 l 1.63159,0.002 v 2.20486 2.20485 h -4.60374 -4.60376 v -2.20485 -2.20486 h 1.6199 c 0.89094,0 1.645,-0.01 1.67569,-0.0214 0.0474,-0.0182 0.0558,-0.10025 0.0558,-0.5468 v -0.52539 h -0.8643 -0.86431 v -0.93722 -0.93722 l -0.79463,-1.44794 -0.79462,-1.44793 0.0106,-5.33186 0.0106,-5.33186 0.0765,-0.28222 c 0.24151,-0.89047 0.58731,-1.51564 1.16821,-2.11199 0.79752,-0.81874 1.74911,-1.2682 2.88406,-1.36222 0.23109,-0.0191 0.44399,-0.0328 0.47309,-0.0303 0.0291,0.002 0.19989,0.0165 0.37952,0.0312 z m 2.86434,4.91101 c -0.0649,0.0437 -0.15057,0.135 -0.19042,0.20284 -0.0718,0.12217 -0.0726,0.16151 -0.083,4.10975 -0.007,2.76896 0.001,4.0263 0.0274,4.11708 0.14822,0.50999 0.82949,0.59699 1.08735,0.13819 l 0.0785,-0.13962 -0.009,-4.07524 c -0.009,-4.07257 -0.009,-4.07531 -0.0831,-4.17484 -0.13396,-0.18077 -0.28657,-0.25834 -0.50829,-0.25834 -0.15035,0 -0.23105,0.0201 -0.31919,0.0795 z m -3.27062,15.54255 c -0.035,0.0222 -0.0425,0.44268 -0.0353,1.98383 l 0.009,1.95565 2.19604,0.009 2.19604,0.009 v -1.96994 c 0,-1.08347 -0.0106,-1.98053 -0.0235,-1.99346 -0.0337,-0.0337 -4.2891,-0.0281 -4.34241,0.006 z m 4.18072,0.52326 c 0.0343,0.0138 0.0441,0.34227 0.0441,1.47511 0,1.29632 -0.006,1.45968 -0.0558,1.47872 -0.10863,0.0417 -1.05672,0.0237 -1.10131,-0.0209 -0.0315,-0.0315 -0.0423,-0.40374 -0.0423,-1.45697 0,-1.05324 0.0108,-1.42546 0.0423,-1.45697 0.0422,-0.0422 1.01443,-0.0588 1.11301,-0.019 z"
       style="fill:#60625e;stroke-width:0.03527778"
       inkscape:export-xdpi="200"
       inkscape:export-ydpi="200" />
    <path
       sodipodi:nodetypes="cscscccccccccccccccccscccccccccccccccccccscccscscccccccsccccsccsccc"
       inkscape:connector-curvature="0"
       id="path869"
       d="m -403.23169,529.62376 c 1.05259,0.0863 2.02765,0.53705 2.78044,1.28538 0.66375,0.65981 1.06333,1.40813 1.27425,2.38639 0.0598,0.27734 0.0637,0.61529 0.0637,5.51655 v 5.22111 l -0.78437,1.4252 -0.78437,1.4252 -0.009,0.95605 -0.009,0.95605 -0.86431,0.0176 -0.8643,0.0176 -0.01,0.51599 c -0.01,0.51078 -0.009,0.51621 0.0705,0.5375 0.0442,0.0118 0.80657,0.0217 1.69425,0.022 l 1.61396,4.7e-4 v 2.20486 2.20486 h -4.60375 -4.60375 v -2.20485 -2.20486 h 1.63367 c 1.25705,0 1.64767,-0.0102 1.69439,-0.0444 0.0533,-0.039 0.0595,-0.10467 0.0508,-0.53798 l -0.01,-0.49359 -0.87313,-0.009 -0.87312,-0.009 v -0.94243 -0.94242 l -0.79463,-1.45742 -0.79463,-1.45742 0.0106,-5.31656 0.0106,-5.31655 0.0765,-0.28222 c 0.2415,-0.89045 0.58731,-1.51564 1.16821,-2.11199 0.79751,-0.81874 1.74911,-1.2682 2.88405,-1.36222 0.2311,-0.0191 0.44399,-0.0328 0.4731,-0.0303 0.0291,0.002 0.19989,0.0165 0.37952,0.0312 z m 2.86434,4.91101 c -0.0649,0.0437 -0.15057,0.135 -0.19042,0.20284 -0.0718,0.12217 -0.0726,0.16151 -0.083,4.10975 -0.007,2.76896 0.001,4.0263 0.0274,4.11708 0.14822,0.51064 0.82949,0.59764 1.08735,0.13884 l 0.0785,-0.13962 -0.009,-4.07524 c -0.009,-4.07257 -0.009,-4.07531 -0.0831,-4.17484 -0.13396,-0.18077 -0.28657,-0.25834 -0.50829,-0.25834 -0.15035,0 -0.23105,0.0201 -0.31919,0.0795 z m -3.27062,15.54255 c -0.035,0.0222 -0.0425,0.44268 -0.0353,1.98383 l 0.009,1.95565 2.19604,0.009 2.19604,0.009 v -1.96994 c 0,-1.08347 -0.0106,-1.98053 -0.0235,-1.99346 -0.0337,-0.0337 -4.2891,-0.0281 -4.34241,0.006 z m 4.18072,0.52326 c 0.0343,0.0138 0.0441,0.34227 0.0441,1.47511 0,1.29633 -0.006,1.45967 -0.0558,1.47872 -0.10863,0.0417 -1.05672,0.0237 -1.10131,-0.0209 -0.0315,-0.0315 -0.0423,-0.40373 -0.0423,-1.45697 0,-1.05324 0.0108,-1.42545 0.0423,-1.45697 0.0422,-0.0422 1.01443,-0.0588 1.11301,-0.019 z"
       style="fill:#496633;stroke-width:0.03527778"
       inkscape:export-xdpi="200"
       inkscape:export-ydpi="200" />
    <path
       sodipodi:nodetypes="cccccccscccccccccsccccccccccc"
       inkscape:connector-curvature="0"
       id="path867"
       d="m -402.49759,548.9655 c 0.01,0.0255 0.0133,0.21996 0.008,0.43215 l -0.0101,0.38579 -1.17299,0.009 -1.17299,0.009 v -0.44145 -0.44145 h 1.16528 c 0.93006,0 1.16886,0.009 1.18306,0.0464 z m 2.99778,1.76173 c 0.009,0.0243 0.0128,0.64741 0.008,1.38465 l -0.009,1.34045 -0.50271,0.01 -0.5027,0.01 v -1.39444 -1.39444 h 0.49499 c 0.36412,0 0.49948,0.0117 0.51196,0.0442 z m -7.39223,1.34926 v 1.39346 h -0.51153 -0.51153 v -1.39346 -1.39347 h 0.51153 0.51153 z"
       style="fill:#141614;stroke-width:0.03527778"
       inkscape:export-xdpi="200"
       inkscape:export-ydpi="200" />
    <path
       style="fill:#496633;fill-opacity:1;stroke:none;stroke-width:0.26458332px;stroke-linecap:butt;stroke-linejoin:miter;stroke-opacity:1"
       d="m -406.91022,530.87444 h 6.44898 l -3.17336,-4.39278 z"
       id="path883-3"
       inkscape:connector-curvature="0"
       sodipodi:nodetypes="cccc"
       inkscape:export-xdpi="200"
       inkscape:export-ydpi="200" />
    <path
       style="fill:none;stroke:#000000;stroke-width:2;stroke-linecap:round;stroke-linejoin:miter;stroke-miterlimit:4;stroke-dasharray:none;stroke-opacity:1"
       d="m -406.62639,534.72453 v 2.03162"
       id="path890"
       inkscape:connector-curvature="0"
       inkscape:export-xdpi="200"
       inkscape:export-ydpi="200" />
    <path
       inkscape:connector-curvature="0"
       id="path892"
       d="m -403.3191,534.72453 v 2.03162"
       style="fill:none;stroke:#000000;stroke-width:2;stroke-linecap:round;stroke-linejoin:miter;stroke-miterlimit:4;stroke-dasharray:none;stroke-opacity:1"
       inkscape:export-xdpi="200"
       inkscape:export-ydpi="200" />
    <path
       style="fill:none;stroke:#000000;stroke-width:2;stroke-linecap:round;stroke-linejoin:miter;stroke-miterlimit:4;stroke-dasharray:none;stroke-opacity:1"
       d="m -403.99001,540.40362 h -1.11976 -0.91186"
       id="path894"
       inkscape:connector-curvature="0"
       sodipodi:nodetypes="ccc"
       inkscape:export-xdpi="200"
       inkscape:export-ydpi="200" />
  </g>
</svg>
